# xmcd
#
# Track frame offsets: 
#        183
#        26438
#        46935
#        64678
#        97383
#        122790
#        142965
#        169065
#        190970
#        202245
#        220473
#        244210
#
# Disc length: 3456 seconds
#
# Revision: 12
# Processed by: cddbd v1.5.2PL0 Copyright (c) Steve Scherf et al.
# Submitted via: ExactAudioCopyFreeDBPlugin 1.0
#
DISCID=ba0d7e0c
DTITLE=Zucchero - Zucchero
DYEAR=1991
DGENRE=Rock
TTITLE0=Diamante
TTITLE1=Wonderful World (Feat. Eric Clapton)
TTITLE2=Il Mare
TTITLE3=Mama
TTITLE4=Dunes Of Mercy
TTITLE5=Senza Una Donna (Feat. Paul Young)
TTITLE6=You're Losing Me
TTITLE7=Solo Una Sana
TTITLE8=You've Chosen Me
TTITLE9=Diavolo In Me
TTITLE10=Overdose (d'Amore)
TTITLE11=Nice (Nietzsche) Che Cice
EXTD=YEAR: 1993
EXTT0=
EXTT1=featuring Eric Clapton
EXTT2=
EXTT3=
EXTT4=
EXTT5=Without a woman, featuring Paul Young
EXTT6=
EXTT7=
EXTT8=
EXTT9=
EXTT10=
EXTT11=
PLAYORDER=
